# xmcd
#
# Track frame offsets: 
#        150
#        12950
#        30550
#        41750
#        54750
#        69550
#        80750
#        95725
#        110125
#        127725
#        138925
#        156525
#        180096
#        190096
#
# Disc length: 2963 seconds
#
# Revision: 0
# Processed by: cddbd v1.5.2PL0 Copyright (c) Steve Scherf et al.
# Submitted via: ExactAudioCopyFreeDBPlugin 1.0
#
DISCID=b50b910e
DTITLE=K-Trième Dimension - Mauvaise Herbe
DYEAR=2013
DGENRE=Hip-Hop
TTITLE0=Ton règne atteint son terme
TTITLE1=Bienvenue en $ui$$e
TTITLE2=Le magma sort de l'underground
TTITLE3=Ecoute l'alarme!
TTITLE4=Babylone ft Akecheta and Ziprex
TTITLE5=Le rap n'est pas une marchandise
TTITLE6=Rien ne se perd...
TTITLE7=Travailler pour vivre
TTITLE8=Attache ta cravatte ft Catacombes
TTITLE9=Une fois pour toutes
TTITLE10=Mauvaise herbe ft Epines
TTITLE11=Pas d'quartier
TTITLE12=Apokalypse
TTITLE13=A l'aube d'un nouveau monde
EXTD=
EXTT0=
EXTT1=
EXTT2=
EXTT3=
EXTT4=
EXTT5=
EXTT6=
EXTT7=
EXTT8=
EXTT9=
EXTT10=
EXTT11=
EXTT12=
EXTT13=
PLAYORDER=
